<?xml version="1.0" encoding="utf-8"?>
<!-- Generator: Adobe Illustrator 25.2.1, SVG Export Plug-In . SVG Version: 6.00 Build 0)  -->
<svg version="1.1" id="Layer_1" xmlns="http://www.w3.org/2000/svg" xmlns:xlink="http://www.w3.org/1999/xlink" x="0px" y="0px"
	 viewBox="0 0 800 800" style="enable-background:new 0 0 800 800;" xml:space="preserve">
<style type="text/css">
	.st0{fill:none;}
	.st1{fill:#FFFFFF;stroke:#FFFFFF;stroke-miterlimit:10;}
	.st2{fill-rule:evenodd;clip-rule:evenodd;fill:#FFFFFF;stroke:#FFFFFF;stroke-miterlimit:10;}
</style>
<path class="st0" d="M0,0h800v800H0V0z"/>
<circle class="st1" cx="400" cy="203.2" r="111.6"/>
<path class="st2" d="M125.2,504.2c36.3-32.9,119.5-86.8,274.8-86.8s238.5,54,274.8,86.8c16.3,14.7,22.8,36.5,22.8,58.3v96.4
	c0,41.1-33.2,74.4-74.3,74.5c0,0-0.1,0-0.1,0H176.8c-41.1,0-74.4-33.3-74.4-74.4c0,0,0,0,0,0v-96.4
	C102.4,540.5,108.9,518.8,125.2,504.2z M400,677.5h223.2c10.3,0,18.6-8.4,18.6-18.6v-96.4c0-12.2-3.6-16.4-4.5-17.2
	c-26.5-24-96.5-72.4-237.5-72.4S189,521.3,162.3,545.3c-0.9,0.8-4.5,5-4.5,17.2v96.4c0,10.3,8.3,18.6,18.6,18.6L400,677.5z"/>
</svg>
