<?xml version="1.0" encoding="utf-8"?>
<!-- Generator: Adobe Illustrator 25.2.1, SVG Export Plug-In . SVG Version: 6.00 Build 0)  -->
<svg version="1.1" id="katman_1" xmlns="http://www.w3.org/2000/svg" xmlns:xlink="http://www.w3.org/1999/xlink" x="0px" y="0px"
	 viewBox="0 0 141.1 100.3" style="enable-background:new 0 0 141.1 100.3;" xml:space="preserve">
<style type="text/css">
	.st0{fill:#FFFFFF;}
	.st1{fill-rule:evenodd;clip-rule:evenodd;fill:#2A53E1;}
	.st2{fill-rule:evenodd;clip-rule:evenodd;fill:#2E6AEE;}
	.st3{fill-rule:evenodd;clip-rule:evenodd;fill:#EBEBEB;}
	.st4{fill-rule:evenodd;clip-rule:evenodd;}
	.st5{fill-rule:evenodd;clip-rule:evenodd;fill:#FFFFFF;}
	.st6{fill-rule:evenodd;clip-rule:evenodd;fill:#E24E30;}
	.st7{fill-rule:evenodd;clip-rule:evenodd;fill:#EF6635;}
	.st8{fill-rule:evenodd;clip-rule:evenodd;fill:#E8E9F2;}
</style>
<rect class="st0" width="141.1" height="100.3"/>
<g>
	<path class="st1" d="M43.6,83.4l-19-5.4l-4.3-48h46.8l-4.3,48L43.6,83.4z"/>
	<path class="st2" d="M59.2,75l3.7-41.1H43.7v45.3L59.2,75z"/>
	<path class="st3" d="M30.1,51.7l0.5,5.8h13.2v-5.8H30.1z M29,39.9l0.5,5.8h14.3v-5.8H29z M43.7,67L43.7,67l-6.6-1.7l-0.4-4.8h-5.8
		l0.9,9.3l11.9,3.3l0,0V67z"/>
	<path class="st4" d="M31.3,16.9h7.1v2.9h-4.1v3h4.1v3h-7.1V16.9z M39.8,16.9h7.1v2.6h-4.1V20h4.1v6h-7.1v-2.7H44v-0.5h-4.1V16.9z
		 M48.4,16.9h7.1v2.6h-4.1V20h4.1v6h-7.1v-2.7h4.1v-0.5h-4.1V16.9z"/>
	<path class="st5" d="M57.3,51.7l1.1-11.9H43.7v5.8H52l-0.5,6h-7.7v5.8H51l-0.7,7.7L43.6,67v6.1l12.1-3.3l0.1-1l1.3-15.6L57.3,51.7z
		"/>
	<path class="st6" d="M122.3,30l-4.3,48l-19.1,5.4L79.8,78l-4.3-48H122.3z"/>
	<path class="st7" d="M98.9,79.2l15.5-4.3l3.7-41.1H98.9V79.2z"/>
	<path class="st8" d="M90.6,45.7h8.3v-5.8H84.3l0.1,1.6l1.5,16.2h13.2v-5.8h-7.8C91.1,51.7,90.6,45.7,90.6,45.7z M92,60.6h-5.8
		l0.9,9.3l11.9,3.4l0,0v-6.1l0,0l-6.5-1.8C92.4,65.2,92,60.6,92,60.6z"/>
	<path class="st4" d="M79.9,16.9h2.9v2.9h2.7v-2.9h2.9v9h-2.9v-3h-2.7v3h-2.9V16.9z M92.5,19.9h-2.7v-2.9H98v2.9h-2.7v6h-2.8V19.9z
		 M99.4,16.9h3.2l1.9,3.2l1.9-3.2h3v9h-2.9v-4.4l-2.1,3.2l0,0l-2.1-3.2V26h-2.9v-9H99.4z M110.9,16.9h2.9v6h4.1v2.9h-7.2v-8.9H110.9
		z"/>
	<path class="st5" d="M98.9,57.6h7.2l-0.7,7.7L98.9,67v6.1l11.9-3.3l0.1-1l1.3-15.5l0.1-1.6H98.9C98.9,51.7,98.9,57.6,98.9,57.6z
		 M98.9,45.7L98.9,45.7h14.1l0.1-1.3l0.2-2.9l0.1-1.6H98.9C98.9,39.9,98.9,45.7,98.9,45.7z"/>
</g>
</svg>
